<?xml version="1.0" encoding="utf-8"?>
<!-- Generator: Adobe Illustrator 28.0.0, SVG Export Plug-In . SVG Version: 6.00 Build 0)  -->
<svg version="1.1" id="Layer_1" xmlns="http://www.w3.org/2000/svg" xmlns:xlink="http://www.w3.org/1999/xlink" x="0px" y="0px"
	 viewBox="0 0 448 512" style="enable-background:new 0 0 448 512;" xml:space="preserve">
<style type="text/css">
	.st0{fill:#FFFFFF;}
</style>
<path class="st0" d="M125.1,208h197.8c10.7,0,16.1,13,8.5,20.5l-98.9,98.3c-4.7,4.7-12.2,4.7-16.9,0l-98.9-98.3
	C109,221,114.4,208,125.1,208L125.1,208z M448,80v352c0,26.5-21.5,48-48,48H48c-26.5,0-48-21.5-48-48V80c0-26.5,21.5-48,48-48h352
	C426.5,32,448,53.5,448,80z M400,426V86c0-3.3-2.7-6-6-6H54c-3.3,0-6,2.7-6,6v340c0,3.3,2.7,6,6,6h340C397.3,432,400,429.3,400,426z
	"/>
</svg>
