<svg width="191" height="33" viewBox="0 0 191 33" fill="none" xmlns="http://www.w3.org/2000/svg">
<path d="M168.418 10.3373V22.3126C168.418 22.6213 168.46 22.8502 168.545 22.9992C168.641 23.1482 168.78 23.2547 168.961 23.3185L169.583 23.4782C169.892 23.6059 170.046 23.8029 170.046 24.069C170.046 24.4948 169.775 24.7077 169.232 24.7077H163.037C162.76 24.7077 162.558 24.6544 162.43 24.548C162.302 24.4309 162.238 24.2819 162.238 24.1009C162.238 23.9519 162.281 23.8295 162.366 23.7337C162.462 23.6272 162.606 23.5421 162.797 23.4782L163.436 23.3026C163.628 23.2493 163.766 23.1535 163.851 23.0152C163.947 22.8661 163.995 22.6373 163.995 22.3286V12.924C163.995 12.6685 163.952 12.4875 163.867 12.3811C163.793 12.264 163.67 12.1948 163.5 12.1735L162.638 12.1097C162.457 12.0671 162.324 12.0032 162.238 11.9181C162.164 11.8329 162.127 11.7211 162.127 11.5827C162.127 11.4231 162.175 11.2953 162.27 11.1995C162.366 11.0931 162.547 10.992 162.813 10.8962L165.943 9.79444C166.315 9.65605 166.613 9.55493 166.837 9.49106C167.071 9.42719 167.284 9.39526 167.476 9.39526C167.784 9.39526 168.019 9.48574 168.178 9.6667C168.338 9.83701 168.418 10.0606 168.418 10.3373ZM167.939 13.8501L167.268 13.1635L167.891 12.6206C169.211 11.3965 170.36 10.5449 171.34 10.0659C172.319 9.57622 173.245 9.33139 174.118 9.33139C175.459 9.33139 176.529 9.75718 177.327 10.6088C178.136 11.4603 178.541 12.6153 178.541 14.0736V22.2807C178.541 22.6107 178.589 22.8502 178.685 22.9992C178.791 23.1482 178.94 23.2547 179.132 23.3185L179.69 23.4782C179.989 23.6059 180.138 23.8029 180.138 24.069C180.138 24.4948 179.866 24.7077 179.323 24.7077L173.272 24.7077C172.729 24.7077 172.457 24.4948 172.457 24.069C172.457 23.8029 172.612 23.6059 172.92 23.4782L173.543 23.3185C173.756 23.2547 173.905 23.1429 173.99 22.9832C174.075 22.8236 174.118 22.5787 174.118 22.2487V14.7123C174.118 13.7756 173.9 13.0783 173.463 12.6206C173.027 12.1522 172.425 11.9181 171.659 11.9181C171.191 11.9181 170.696 12.0298 170.174 12.2534C169.663 12.4769 169.131 12.8282 168.577 13.3072L167.939 13.8501ZM178.062 13.8501L177.391 13.1635L177.998 12.6046C179.265 11.4337 180.356 10.5981 181.271 10.0978C182.197 9.58686 183.081 9.33139 183.922 9.33139C185.21 9.33139 186.21 9.7625 186.924 10.6247C187.647 11.4763 188.089 12.6259 188.249 14.0736L189.159 22.2807C189.202 22.6 189.26 22.8395 189.335 22.9992C189.42 23.1482 189.558 23.2547 189.75 23.3185L190.325 23.4782C190.516 23.5421 190.655 23.6272 190.74 23.7337C190.825 23.8295 190.867 23.9519 190.867 24.1009C190.867 24.2925 190.804 24.4416 190.676 24.548C190.548 24.6544 190.346 24.7077 190.069 24.7077L183.842 24.7077C183.299 24.7077 183.028 24.4948 183.028 24.069C183.028 23.8029 183.182 23.6059 183.491 23.4782L184.113 23.3185C184.316 23.2547 184.47 23.1429 184.576 22.9832C184.683 22.8236 184.72 22.5787 184.688 22.2487L183.842 14.7123C183.735 13.7862 183.496 13.089 183.123 12.6206C182.751 12.1522 182.208 11.9181 181.495 11.9181C181.08 11.9181 180.638 12.0351 180.169 12.2693C179.701 12.5035 179.206 12.8441 178.685 13.2912L178.062 13.8501Z" fill="#FFFFFF"/>
<path d="M154.936 22.5841V21.6739L154.809 21.6101V12.924C154.809 12.6791 154.766 12.5035 154.681 12.3971C154.606 12.28 154.484 12.2055 154.314 12.1735L153.451 12.1256C153.27 12.083 153.137 12.0192 153.052 11.934C152.978 11.8382 152.94 11.7211 152.94 11.5827C152.94 11.4231 152.988 11.2953 153.084 11.1995C153.18 11.0931 153.361 10.992 153.627 10.8962L156.757 9.79443C157.118 9.65605 157.411 9.56025 157.635 9.50703C157.869 9.44316 158.087 9.41122 158.289 9.41122C158.598 9.41122 158.832 9.49638 158.992 9.6667C159.152 9.83701 159.231 10.0659 159.231 10.3533V22.3126C159.231 22.6213 159.274 22.8502 159.359 22.9992C159.455 23.1482 159.593 23.2493 159.774 23.3026L160.397 23.4622C160.599 23.5261 160.743 23.6113 160.828 23.7177C160.913 23.8242 160.956 23.9519 160.956 24.1009C160.956 24.2925 160.892 24.4416 160.764 24.548C160.637 24.6544 160.434 24.7077 160.158 24.7077L156.804 24.7077C156.272 24.7077 155.825 24.5107 155.463 24.1169C155.112 23.723 154.936 23.2121 154.936 22.5841ZM144.829 20.3327V12.924C144.829 12.6791 144.792 12.5035 144.717 12.3971C144.643 12.28 144.515 12.2055 144.334 12.1735L143.472 12.1256C143.291 12.083 143.163 12.0192 143.089 11.934C143.014 11.8382 142.977 11.7211 142.977 11.5827C142.977 11.4231 143.025 11.2953 143.121 11.1995C143.216 11.0931 143.392 10.992 143.648 10.8962L146.777 9.79443C147.171 9.65605 147.48 9.56025 147.703 9.50703C147.927 9.44316 148.124 9.41122 148.294 9.41122C148.613 9.41122 148.853 9.49638 149.013 9.6667C149.172 9.83701 149.252 10.0659 149.252 10.3533V19.71C149.252 20.6467 149.476 21.3493 149.923 21.8176C150.37 22.2754 150.971 22.5042 151.727 22.5042C152.195 22.5042 152.69 22.3924 153.212 22.1689C153.744 21.9347 154.287 21.5834 154.841 21.1151L155.479 20.5562L156.15 21.2588L155.527 21.8017C154.207 23.0152 153.052 23.8667 152.062 24.3564C151.072 24.8461 150.146 25.0909 149.284 25.0909C147.953 25.0909 146.878 24.6651 146.059 23.8135C145.239 22.9513 144.829 21.791 144.829 20.3327Z" fill="#FFFFFF"/>
<path d="M140.707 10.3373V22.3126C140.707 22.6213 140.75 22.8502 140.835 22.9992C140.931 23.1482 141.075 23.2494 141.266 23.3026L141.889 23.4623C142.081 23.5261 142.219 23.6113 142.304 23.7177C142.4 23.8242 142.448 23.9519 142.448 24.1009C142.448 24.2925 142.384 24.4416 142.256 24.548C142.129 24.6545 141.921 24.7077 141.634 24.7077H135.342C135.066 24.7077 134.863 24.6545 134.736 24.548C134.608 24.4416 134.544 24.2925 134.544 24.1009C134.544 23.9519 134.587 23.8295 134.672 23.7337C134.757 23.6272 134.895 23.5421 135.087 23.4782L135.742 23.3026C135.923 23.2494 136.056 23.1536 136.141 23.0152C136.237 22.8661 136.285 22.632 136.285 22.3126V12.924C136.285 12.6685 136.247 12.4876 136.173 12.3811C136.098 12.264 135.971 12.1948 135.79 12.1735L134.943 12.1097C134.762 12.0671 134.629 12.0032 134.544 11.9181C134.47 11.8329 134.432 11.7211 134.432 11.5828C134.432 11.4124 134.48 11.2794 134.576 11.1836C134.672 11.0878 134.848 10.992 135.103 10.8962L138.233 9.79445C138.626 9.64542 138.935 9.5443 139.159 9.49107C139.382 9.42721 139.579 9.39527 139.749 9.39527C140.069 9.39527 140.308 9.48575 140.468 9.66671C140.628 9.83703 140.707 10.0606 140.707 10.3373ZM138.185 7.00021C137.344 7.00021 136.668 6.78199 136.157 6.34556C135.657 5.90913 135.406 5.33431 135.406 4.62112C135.406 3.90792 135.657 3.33843 136.157 2.91265C136.668 2.47621 137.344 2.258 138.185 2.258C139.026 2.258 139.696 2.47621 140.196 2.91265C140.707 3.34908 140.963 3.91857 140.963 4.62112C140.963 5.33431 140.707 5.90913 140.196 6.34556C139.696 6.78199 139.026 7.00021 138.185 7.00021Z" fill="#FFFFFF"/>
<path d="M127.364 22.121L127.237 22.0412V4.49338C127.237 4.23791 127.199 4.05695 127.125 3.9505C127.05 3.83341 126.923 3.76422 126.742 3.74293L125.895 3.67906C125.715 3.63648 125.581 3.57261 125.496 3.48746C125.422 3.4023 125.385 3.29053 125.385 3.15215C125.385 2.99248 125.432 2.86474 125.528 2.76894C125.624 2.66249 125.8 2.56137 126.055 2.46557L129.185 1.36384C129.557 1.22546 129.855 1.12433 130.079 1.06046C130.313 0.996595 130.531 0.964661 130.733 0.964661C131.042 0.964661 131.271 1.05514 131.42 1.2361C131.58 1.40642 131.66 1.62995 131.66 1.90672V22.3126C131.66 22.6213 131.702 22.8502 131.787 22.9992C131.883 23.1482 132.027 23.2494 132.218 23.3026L132.841 23.4622C133.033 23.5261 133.171 23.6113 133.256 23.7177C133.352 23.8242 133.4 23.9519 133.4 24.1009C133.4 24.2925 133.336 24.4416 133.208 24.548C133.081 24.6545 132.873 24.7077 132.586 24.7077H129.153C128.642 24.7077 128.216 24.5427 127.875 24.2127C127.535 23.8827 127.364 23.4516 127.364 22.9194V22.121ZM115.868 17.6183C115.868 15.9258 116.203 14.4622 116.874 13.2274C117.545 11.9819 118.45 11.0239 119.588 10.3533C120.738 9.67203 122.021 9.3314 123.437 9.3314C124.693 9.3314 125.789 9.61881 126.726 10.1936C127.673 10.7684 128.456 11.5987 129.073 12.6845L128.067 13.5307C127.567 12.6898 126.992 12.0618 126.343 11.6466C125.704 11.2208 125.007 11.0079 124.251 11.0079C123.538 11.0079 122.894 11.2262 122.319 11.6626C121.744 12.0884 121.292 12.7537 120.962 13.6585C120.632 14.5633 120.467 15.7235 120.467 17.1393C120.467 18.4592 120.626 19.5503 120.946 20.4125C121.265 21.2748 121.701 21.9188 122.255 22.3446C122.809 22.7597 123.437 22.9673 124.139 22.9673C124.884 22.9673 125.587 22.7437 126.247 22.2967C126.917 21.8496 127.529 21.163 128.083 20.2369L128.754 21.0672C127.913 22.3446 126.96 23.3345 125.895 24.0371C124.842 24.7396 123.665 25.0909 122.367 25.0909C121.121 25.0909 120.009 24.7769 119.03 24.1488C118.05 23.5102 117.279 22.632 116.714 21.5143C116.15 20.3859 115.868 19.0873 115.868 17.6183Z" fill="#FFFFFF"/>
<path d="M103.08 10.3373V22.3126C103.08 22.6213 103.123 22.8502 103.208 22.9992C103.304 23.1376 103.442 23.2387 103.623 23.3026L104.246 23.4782C104.554 23.6059 104.709 23.8029 104.709 24.069C104.709 24.4948 104.437 24.7077 103.894 24.7077H97.6991C97.4224 24.7077 97.2201 24.6544 97.0924 24.548C96.9646 24.4416 96.9008 24.2925 96.9008 24.1009C96.9008 23.9519 96.9433 23.8295 97.0285 23.7337C97.1243 23.6272 97.2627 23.5421 97.4436 23.4782L98.0983 23.3026C98.2899 23.2493 98.4283 23.1535 98.5134 23.0152C98.6092 22.8661 98.6572 22.632 98.6572 22.3126V12.924C98.6572 12.6685 98.6146 12.4875 98.5294 12.3811C98.4549 12.264 98.3325 12.1948 98.1622 12.1735L97.2999 12.1097C97.119 12.0671 96.9859 12.0032 96.9008 11.9181C96.8263 11.8329 96.789 11.7211 96.789 11.5827C96.789 11.4124 96.8369 11.2794 96.9327 11.1836C97.0391 11.0878 97.2201 10.992 97.4756 10.8962L100.605 9.79444C100.978 9.65605 101.276 9.55493 101.499 9.49106C101.733 9.42719 101.946 9.39526 102.138 9.39526C102.447 9.39526 102.681 9.48574 102.841 9.6667C103 9.83701 103.08 10.0606 103.08 10.3373ZM102.601 13.8501L101.93 13.1635L102.553 12.6046C103.862 11.4337 104.985 10.5981 105.922 10.0978C106.859 9.58686 107.753 9.33139 108.605 9.33139C109.882 9.33139 110.872 9.75718 111.575 10.6088C112.288 11.4603 112.719 12.6046 112.868 14.0417L113.794 22.2647C113.837 22.5947 113.895 22.8395 113.97 22.9992C114.055 23.1482 114.193 23.2547 114.385 23.3185L114.975 23.4782C115.167 23.5421 115.305 23.6272 115.391 23.7337C115.476 23.8295 115.518 23.9519 115.518 24.1009C115.518 24.2925 115.454 24.4416 115.327 24.548C115.21 24.6544 115.007 24.7077 114.72 24.7077L108.461 24.7077C107.918 24.7077 107.647 24.4948 107.647 24.069C107.647 23.8029 107.801 23.6059 108.11 23.4782L108.748 23.3026C108.951 23.2387 109.105 23.1323 109.211 22.9832C109.318 22.8236 109.355 22.5841 109.323 22.2647L108.461 14.6804C108.354 13.7543 108.12 13.0624 107.758 12.6046C107.407 12.1469 106.875 11.9181 106.162 11.9181C105.725 11.9181 105.262 12.0351 104.773 12.2693C104.294 12.5035 103.783 12.8495 103.24 13.3072L102.601 13.8501Z" fill="#FFFFFF"/>
<path d="M95.6254 15.3829C95.6254 15.9045 95.4764 16.309 95.1783 16.5964C94.8803 16.8732 94.4491 17.0115 93.885 17.0115H83.9215V15.8779L90.4361 15.8779C90.9364 15.8779 91.1865 15.649 91.1865 15.1913C91.1865 13.733 90.9311 12.6312 90.4201 11.8861C89.9092 11.141 89.2332 10.7684 88.3923 10.7684C87.7323 10.7684 87.1522 10.9707 86.6519 11.3752C86.1516 11.7797 85.7577 12.3651 85.4703 13.1316C85.1829 13.8873 85.0392 14.8081 85.0392 15.8939C85.0392 17.9589 85.5182 19.5131 86.4763 20.5562C87.4449 21.5888 88.7223 22.105 90.3084 22.105C91.2664 22.105 92.102 21.9081 92.8152 21.5143C93.5284 21.1204 94.0659 20.5616 94.4279 19.8377C94.5982 19.6461 94.7366 19.5184 94.843 19.4545C94.9494 19.38 95.0559 19.3427 95.1623 19.3427C95.3114 19.3427 95.4231 19.4119 95.4977 19.5503C95.5722 19.6887 95.6041 19.8537 95.5935 20.0453C95.5509 20.9607 95.2369 21.8017 94.6514 22.5681C94.0659 23.3345 93.2676 23.9466 92.2563 24.4043C91.2557 24.862 90.1114 25.0909 88.8234 25.0909C87.3012 25.0909 85.9547 24.7769 84.7838 24.1488C83.6128 23.5208 82.6921 22.6426 82.0215 21.5143C81.3615 20.3753 81.0315 19.0447 81.0315 17.5225C81.0315 15.9151 81.3455 14.4994 81.9735 13.2753C82.6122 12.0405 83.5277 11.0771 84.7199 10.3852C85.9121 9.68267 87.3278 9.33139 88.9671 9.33139C90.3616 9.33139 91.5538 9.59219 92.5437 10.1138C93.5443 10.6247 94.3054 11.3379 94.827 12.2534C95.3593 13.1582 95.6254 14.2013 95.6254 15.3829Z" fill="#FFFFFF"/>
<path d="M68.2823 10.3213V12.1416L68.442 12.5088V29.7533C68.442 30.062 68.4846 30.2908 68.5697 30.4398C68.6655 30.5995 68.8092 30.7006 69.0008 30.7432L69.8631 30.9189C70.0547 30.9721 70.193 31.0519 70.2782 31.1584C70.3634 31.2648 70.4059 31.3925 70.4059 31.5416C70.4059 31.7332 70.3421 31.8822 70.2143 31.9886C70.0866 32.0951 69.8843 32.1483 69.6076 32.1483H63.0771C62.8109 32.1483 62.614 32.0951 62.4863 31.9886C62.3585 31.8822 62.2947 31.7332 62.2947 31.5416C62.2947 31.4032 62.3372 31.2808 62.4224 31.1743C62.5076 31.0679 62.6459 30.9827 62.8376 30.9189L63.4762 30.7592C63.6572 30.6953 63.7903 30.5889 63.8754 30.4398C63.9712 30.3015 64.0191 30.0779 64.0191 29.7692V12.908C64.0191 12.6525 63.9765 12.4716 63.8914 12.3651C63.8169 12.2587 63.6944 12.1895 63.5241 12.1576L62.6619 12.0937C62.481 12.0618 62.3532 12.0032 62.2787 11.9181C62.2042 11.8223 62.1669 11.7052 62.1669 11.5668C62.1669 11.4071 62.2148 11.2847 62.3106 11.1995C62.4064 11.1037 62.5821 11.0026 62.8376 10.8962L65.8074 9.77847C66.1587 9.64009 66.4461 9.54428 66.6696 9.49106C66.9038 9.42719 67.1114 9.39526 67.2924 9.39526C67.6223 9.39526 67.8672 9.48042 68.0268 9.65073C68.1972 9.82105 68.2823 10.0446 68.2823 10.3213ZM67.5957 14.2013L66.9251 13.3551C67.766 12.0884 68.7187 11.1037 69.7832 10.4012C70.8477 9.68799 72.0293 9.33139 73.3279 9.33139C74.5733 9.33139 75.6857 9.65073 76.665 10.2894C77.6443 10.9175 78.4161 11.7956 78.9802 12.924C79.5444 14.0417 79.8265 15.335 79.8265 16.804C79.8265 18.4858 79.4912 19.9495 78.8206 21.1949C78.15 22.4403 77.2452 23.4037 76.1062 24.085C74.9672 24.7556 73.6898 25.0909 72.2741 25.0909C71.0286 25.0909 69.9269 24.8088 68.9689 24.2446C68.0215 23.6698 67.2445 22.8289 66.6377 21.7218L67.6436 20.8756C68.1439 21.7272 68.7134 22.3658 69.3521 22.7916C69.9908 23.2068 70.6827 23.4143 71.4278 23.4143C72.1517 23.4143 72.801 23.2014 73.3758 22.7757C73.9506 22.3392 74.403 21.6686 74.733 20.7638C75.063 19.859 75.228 18.6987 75.228 17.283C75.228 15.9524 75.0683 14.856 74.749 13.9938C74.4296 13.1316 73.9932 12.4929 73.4397 12.0777C72.8861 11.6519 72.2581 11.439 71.5556 11.439C70.8104 11.439 70.1026 11.6679 69.4319 12.1256C68.772 12.5727 68.1599 13.2646 67.5957 14.2013Z" fill="#FFFFFF"/>
<path d="M39.5286 10.3373V22.3126C39.5286 22.6213 39.5712 22.8502 39.6564 22.9992C39.7522 23.1482 39.8906 23.2547 40.0715 23.3185L40.6942 23.4782C41.0029 23.6059 41.1573 23.8029 41.1573 24.069C41.1573 24.4948 40.8858 24.7077 40.343 24.7077H34.1477C33.871 24.7077 33.6687 24.6544 33.541 24.548C33.4132 24.4309 33.3494 24.2819 33.3494 24.1009C33.3494 23.9519 33.392 23.8295 33.4771 23.7337C33.5729 23.6272 33.7166 23.5421 33.9082 23.4782L34.5469 23.3026C34.7385 23.2493 34.8769 23.1535 34.9621 23.0152C35.0579 22.8661 35.1058 22.6373 35.1058 22.3286V12.924C35.1058 12.6685 35.0632 12.4875 34.978 12.3811C34.9035 12.264 34.7811 12.1948 34.6108 12.1735L33.7486 12.1097C33.5676 12.0671 33.4345 12.0032 33.3494 11.9181C33.2749 11.8329 33.2376 11.7211 33.2376 11.5827C33.2376 11.4231 33.2855 11.2953 33.3813 11.1995C33.4771 11.0931 33.6581 10.992 33.9242 10.8962L37.0537 9.79444C37.4263 9.65605 37.7244 9.55493 37.9479 9.49106C38.1821 9.42719 38.395 9.39526 38.5866 9.39526C38.8953 9.39526 39.1295 9.48574 39.2891 9.6667C39.4488 9.83701 39.5286 10.0606 39.5286 10.3373ZM39.0496 13.8501L38.379 13.1635L39.0017 12.6206C40.3217 11.3965 41.4713 10.5449 42.4506 10.0659C43.4299 9.57622 44.356 9.33139 45.2289 9.33139C46.5701 9.33139 47.6399 9.75718 48.4383 10.6088C49.2472 11.4603 49.6517 12.6153 49.6517 14.0736V22.2807C49.6517 22.6107 49.6996 22.8502 49.7955 22.9992C49.9019 23.1482 50.0509 23.2547 50.2425 23.3185L50.8014 23.4782C51.0994 23.6059 51.2485 23.8029 51.2485 24.069C51.2485 24.4948 50.977 24.7077 50.4341 24.7077L44.3826 24.7077C43.8397 24.7077 43.5683 24.4948 43.5683 24.069C43.5683 23.8029 43.7226 23.6059 44.0313 23.4782L44.6541 23.3185C44.867 23.2547 45.016 23.1429 45.1011 22.9832C45.1863 22.8236 45.2289 22.5787 45.2289 22.2487V14.7123C45.2289 13.7756 45.0107 13.0783 44.5742 12.6206C44.1378 12.1522 43.5364 11.9181 42.7699 11.9181C42.3016 11.9181 41.8066 12.0298 41.285 12.2534C40.7741 12.4769 40.2418 12.8282 39.6883 13.3072L39.0496 13.8501ZM49.1727 13.8501L48.5021 13.1635L49.1089 12.6046C50.3756 11.4337 51.4667 10.5981 52.3821 10.0978C53.3082 9.58686 54.1917 9.33139 55.0326 9.33139C56.3207 9.33139 57.3213 9.7625 58.0345 10.6247C58.7583 11.4763 59.2001 12.6259 59.3597 14.0736L60.2698 22.2807C60.3124 22.6 60.371 22.8395 60.4455 22.9992C60.5306 23.1482 60.669 23.2547 60.8606 23.3185L61.4354 23.4782C61.627 23.5421 61.7654 23.6272 61.8506 23.7337C61.9357 23.8295 61.9783 23.9519 61.9783 24.1009C61.9783 24.2925 61.9145 24.4416 61.7867 24.548C61.659 24.6544 61.4567 24.7077 61.18 24.7077L54.9528 24.7077C54.4099 24.7077 54.1385 24.4948 54.1385 24.069C54.1385 23.8029 54.2928 23.6059 54.6015 23.4782L55.2243 23.3185C55.4265 23.2547 55.5809 23.1429 55.6873 22.9832C55.7937 22.8236 55.831 22.5787 55.7991 22.2487L54.9528 14.7123C54.8464 13.7862 54.6069 13.089 54.2343 12.6206C53.8617 12.1522 53.3189 11.9181 52.6057 11.9181C52.1905 11.9181 51.7488 12.0351 51.2804 12.2693C50.812 12.5035 50.317 12.8441 49.7955 13.2912L49.1727 13.8501Z" fill="#FFFFFF"/>
<path d="M23.851 9.33139C25.4689 9.33139 26.89 9.6667 28.1142 10.3373C29.3489 10.9973 30.3123 11.9234 31.0042 13.1156C31.6961 14.3078 32.0421 15.6863 32.0421 17.2511C32.0421 18.7413 31.6855 20.0825 30.9723 21.2748C30.2591 22.4563 29.2744 23.3877 28.0184 24.069C26.7729 24.7502 25.3306 25.0909 23.6913 25.0909C22.0733 25.0909 20.6469 24.7556 19.4121 24.085C18.188 23.4143 17.2299 22.4829 16.538 21.2907C15.8461 20.0985 15.5002 18.7307 15.5002 17.1872C15.5002 15.6756 15.8515 14.3291 16.554 13.1475C17.2672 11.966 18.2465 11.0345 19.4919 10.3533C20.748 9.67202 22.201 9.33139 23.851 9.33139ZM24.9527 23.558C25.6659 23.4516 26.2407 23.1216 26.6771 22.5681C27.1242 22.0039 27.4063 21.2322 27.5234 20.2529C27.6405 19.2629 27.5766 18.0707 27.3318 16.6762C27.0976 15.2818 26.7516 14.1375 26.2939 13.2433C25.8362 12.3385 25.288 11.6839 24.6493 11.2794C24.0213 10.8749 23.3347 10.7365 22.5896 10.8642C21.8657 10.9707 21.2856 11.306 20.8491 11.8702C20.4127 12.4237 20.136 13.1954 20.0189 14.1854C19.9018 15.1647 19.9656 16.3569 20.2105 17.762C20.4446 19.1352 20.7906 20.2741 21.2483 21.1789C21.7167 22.0837 22.2649 22.7384 22.8929 23.1429C23.521 23.5368 24.2076 23.6751 24.9527 23.558Z" fill="#FFFFFF"/>
<path d="M14.3763 13.6744C14.3763 14.2705 14.1687 14.7708 13.7536 15.1753C13.3384 15.5798 12.7849 15.7821 12.093 15.7821C11.4224 15.7821 10.9061 15.5958 10.5442 15.2232C10.1929 14.84 10.0173 14.345 10.0173 13.7383V13.1635C10.0173 12.4396 9.79905 11.8595 9.36262 11.4231C8.92618 10.9866 8.3354 10.7684 7.59027 10.7684C6.9303 10.7684 6.3342 10.976 5.80196 11.3911C5.28037 11.7956 4.86523 12.3811 4.55653 13.1475C4.25848 13.9033 4.10945 14.8081 4.10945 15.8619C4.10945 17.2138 4.33299 18.3528 4.78007 19.2789C5.22715 20.1943 5.84454 20.8915 6.63225 21.3706C7.41996 21.8389 8.31411 22.0731 9.31472 22.0731C10.2302 22.0731 11.0285 21.8868 11.7098 21.5143C12.391 21.1417 12.9179 20.6041 13.2905 19.9016C13.4608 19.71 13.5992 19.5822 13.7057 19.5184C13.8121 19.4439 13.9186 19.4066 14.025 19.4066C14.1847 19.4066 14.2964 19.4758 14.3603 19.6142C14.4348 19.7526 14.4668 19.9176 14.4561 20.1092C14.3922 21.0352 14.0676 21.8762 13.4821 22.632C12.9073 23.3877 12.1356 23.9892 11.1669 24.4362C10.1982 24.8727 9.08585 25.0909 7.82978 25.0909C6.31823 25.0909 4.98232 24.7822 3.82205 24.1648C2.66177 23.5368 1.74633 22.6586 1.07571 21.5302C0.41574 20.4019 0.0857544 19.0713 0.0857544 17.5385C0.0857544 15.9843 0.41574 14.5899 1.07571 13.3551C1.74633 12.1097 2.68306 11.1303 3.88592 10.4172C5.09941 9.69331 6.52048 9.33139 8.14912 9.33139C9.43713 9.33139 10.5442 9.52832 11.4703 9.92217C12.407 10.316 13.1255 10.8429 13.6258 11.5029C14.1261 12.1522 14.3763 12.8761 14.3763 13.6744Z" fill="#FFFFFF"/>
</svg>
